<?xml version="1.0" encoding="UTF-8"?>
<svg width="700px" height="700px" viewBox="0 0 700 700" version="1.1" xmlns="http://www.w3.org/2000/svg" xmlns:xlink="http://www.w3.org/1999/xlink">
    <title>Artboard Copy 3</title>
    <g id="Artboard-Copy-3" stroke="none" stroke-width="1" fill="none" fill-rule="evenodd">
        <circle id="Oval" fill="#FFFFFF" cx="350" cy="350" r="321"></circle>
        <path d="M350,29 C527.283405,29 671,172.716595 671,350 C671,527.283405 527.283405,671 350,671 C172.716595,671 29,527.283405 29,350 C29,172.716595 172.716595,29 350,29 Z M244,207 L209,207 C229.666667,263.666667 250.333333,319.833333 271,375.5 C290.288889,427.455556 309.577778,479.846667 328.866667,532.673333 L333,544 L369,544 L493,207 L458,207 L379.5,421.5 C375.166667,435.833333 370.5,451 365.5,467 C360.7,482.36 355.9,496.6448 351.1,509.8544 L350.5,511.5 L322,421 C309.666667,386.333333 296.75,350.75 283.25,314.25 C270.425,279.575 257.976042,245.576875 245.903125,212.255625 L244,207 Z" id="Combined-Shape" fill="#000000"></path>
    </g>
</svg>